<svg xmlns="http://www.w3.org/2000/svg" viewBox="0 0 1440 320"><path fill="#a3e635" fill-opacity="1" d="M0,224L24,224C48,224,96,224,144,202.7C192,181,240,139,288,144C336,149,384,203,432,229.3C480,256,528,256,576,224C624,192,672,128,720,101.3C768,75,816,85,864,122.7C912,160,960,224,1008,256C1056,288,1104,288,1152,250.7C1200,213,1248,139,1296,133.3C1344,128,1392,192,1416,224L1440,256L1440,0L1416,0C1392,0,1344,0,1296,0C1248,0,1200,0,1152,0C1104,0,1056,0,1008,0C960,0,912,0,864,0C816,0,768,0,720,0C672,0,624,0,576,0C528,0,480,0,432,0C384,0,336,0,288,0C240,0,192,0,144,0C96,0,48,0,24,0L0,0Z"></path></svg>