<svg xmlns="http://www.w3.org/2000/svg" viewBox="0 0 1440 320"><path fill="#a3e635" fill-opacity="1" d="M0,128L24,122.7C48,117,96,107,144,133.3C192,160,240,224,288,229.3C336,235,384,181,432,181.3C480,181,528,235,576,250.7C624,267,672,245,720,234.7C768,224,816,224,864,208C912,192,960,160,1008,160C1056,160,1104,192,1152,213.3C1200,235,1248,245,1296,261.3C1344,277,1392,299,1416,309.3L1440,320L1440,320L1416,320C1392,320,1344,320,1296,320C1248,320,1200,320,1152,320C1104,320,1056,320,1008,320C960,320,912,320,864,320C816,320,768,320,720,320C672,320,624,320,576,320C528,320,480,320,432,320C384,320,336,320,288,320C240,320,192,320,144,320C96,320,48,320,24,320L0,320Z"></path></svg>